<svg width="28" height="28" viewBox="0 0 28 28" fill="none" xmlns="http://www.w3.org/2000/svg">
<path d="M26.25 21H22.75V17.5H21V21H17.5V22.75H21V26.25H22.75V22.75H26.25V21Z" fill="black"/>
<path d="M14 24.5H7V3.5H14V8.75C14.0013 9.21371 14.1861 9.65805 14.514 9.98595C14.8419 10.3139 15.2863 10.4987 15.75 10.5H21V14H22.75V8.75C22.7531 8.63499 22.7313 8.52068 22.686 8.41494C22.6407 8.30919 22.5729 8.21454 22.4875 8.1375L16.3625 2.0125C16.2855 1.92703 16.1908 1.8593 16.0851 1.81398C15.9793 1.76866 15.865 1.74683 15.75 1.75H7C6.53628 1.75133 6.09194 1.93614 5.76404 2.26404C5.43614 2.59194 5.25134 3.03628 5.25 3.5V24.5C5.25134 24.9637 5.43614 25.4081 5.76404 25.736C6.09194 26.0639 6.53628 26.2487 7 26.25H14V24.5ZM15.75 3.85L20.65 8.75H15.75V3.85Z" fill="black"/>
</svg>
