<svg width="32" height="32" viewBox="0 0 32 32" fill="none" xmlns="http://www.w3.org/2000/svg">
<path d="M29.3333 6.90666L14.12 22.1333L8.46666 16.48L10.3467 14.6L14.12 18.3733L27.4533 5.03999L29.3333 6.90666ZM26.3867 13.6267C26.56 14.3867 26.6667 15.1867 26.6667 16C26.6667 21.8933 21.8933 26.6667 16 26.6667C10.1067 26.6667 5.33332 21.8933 5.33332 16C5.33332 10.1067 10.1067 5.33332 16 5.33332C18.1067 5.33332 20.0533 5.94666 21.7067 6.99999L23.6267 5.07999C21.4667 3.55999 18.84 2.66666 16 2.66666C8.63999 2.66666 2.66666 8.63999 2.66666 16C2.66666 23.36 8.63999 29.3333 16 29.3333C23.36 29.3333 29.3333 23.36 29.3333 16C29.3333 14.4133 29.04 12.8933 28.5333 11.48L26.3867 13.6267Z" fill="#8EEDDC"/>
</svg>
